<?xml version="1.0" standalone="no"?><svg xmlns="http://www.w3.org/2000/svg" viewBox="0 0 1440 320"><path fill="#7e70a5" fill-opacity="1" d="M0,224L30,213.3C60,203,120,181,180,181.3C240,181,300,203,360,202.7C420,203,480,181,540,154.7C600,128,660,96,720,117.3C780,139,840,213,900,240C960,267,1020,245,1080,240C1140,235,1200,245,1260,229.3C1320,213,1380,171,1410,149.3L1440,128L1440,320L1410,320C1380,320,1320,320,1260,320C1200,320,1140,320,1080,320C1020,320,960,320,900,320C840,320,780,320,720,320C660,320,600,320,540,320C480,320,420,320,360,320C300,320,240,320,180,320C120,320,60,320,30,320L0,320Z"></path></svg>